<?xml version="1.0" encoding="UTF-8" standalone="no"?>
<!DOCTYPE svg PUBLIC "-//W3C//DTD SVG 1.1//EN"
 "http://www.w3.org/Graphics/SVG/1.1/DTD/svg11.dtd">
<!-- Generated by graphviz version 2.48.0 (20210717.1556)
 -->
<!-- Pages: 1 -->
<svg width="250pt" height="355pt"
 viewBox="0.00 0.00 250.00 355.00" xmlns="http://www.w3.org/2000/svg" xmlns:xlink="http://www.w3.org/1999/xlink">
<g id="graph0" class="graph" transform="scale(1 1) rotate(0) translate(4 351)">
<polygon fill="#f5f2f0" stroke="transparent" points="-4,4 -4,-351 246,-351 246,4 -4,4"/>
<text text-anchor="middle" x="121" y="-7.8" font-family="Consolas,Monaco,'Andale Mono','Ubuntu Mono',monospace" font-size="14.00">Variable &lt;b&gt;</text>
<!-- 2 -->
<g id="node1" class="node">
<title>2</title>
<polygon fill="none" stroke="black" points="174.5,-347 67.5,-347 67.5,-311 174.5,-311 174.5,-347"/>
<text text-anchor="middle" x="121" y="-325.3" font-family="Consolas,Monaco,'Andale Mono','Ubuntu Mono',monospace" font-size="14.00"> 2: Integer </text>
</g>
<!-- 13 -->
<g id="node2" class="node">
<title>13</title>
<polygon fill="none" stroke="black" points="170.5,-275 71.5,-275 71.5,-239 170.5,-239 170.5,-275"/>
<text text-anchor="middle" x="121" y="-253.3" font-family="Consolas,Monaco,'Andale Mono','Ubuntu Mono',monospace" font-size="14.00"> 13: Float </text>
</g>
<!-- 2&#45;&gt;13 -->
<g id="edge1" class="edge">
<title>2&#45;&gt;13</title>
<path fill="none" stroke="black" d="M121,-310.7C121,-302.98 121,-293.71 121,-285.11"/>
<polygon fill="black" stroke="black" points="124.5,-285.1 121,-275.1 117.5,-285.1 124.5,-285.1"/>
</g>
<!-- 15 -->
<g id="node3" class="node">
<title>15</title>
<polygon fill="none" stroke="black" points="174.5,-203 67.5,-203 67.5,-167 174.5,-167 174.5,-203"/>
<text text-anchor="middle" x="121" y="-181.3" font-family="Consolas,Monaco,'Andale Mono','Ubuntu Mono',monospace" font-size="14.00"> 15: String </text>
</g>
<!-- 13&#45;&gt;15 -->
<g id="edge2" class="edge">
<title>13&#45;&gt;15</title>
<path fill="none" stroke="black" d="M121,-238.7C121,-230.98 121,-221.71 121,-213.11"/>
<polygon fill="black" stroke="black" points="124.5,-213.1 121,-203.1 117.5,-213.1 124.5,-213.1"/>
</g>
<!-- 15.5 -->
<g id="node4" class="node">
<title>15.5</title>
<polygon fill="none" stroke="black" points="242,-131 0,-131 0,-95 242,-95 242,-131"/>
<text text-anchor="middle" x="121" y="-109.3" font-family="Consolas,Monaco,'Andale Mono','Ubuntu Mono',monospace" font-size="14.00"> 15.5: Integer, Float, String </text>
</g>
<!-- 15&#45;&gt;15.5 -->
<g id="edge3" class="edge">
<title>15&#45;&gt;15.5</title>
<path fill="none" stroke="black" d="M121,-166.7C121,-158.98 121,-149.71 121,-141.11"/>
<polygon fill="black" stroke="black" points="124.5,-141.1 121,-131.1 117.5,-141.1 124.5,-141.1"/>
</g>
<!-- 17 -->
<g id="node5" class="node">
<title>17</title>
<polygon fill="none" stroke="black" points="234.5,-59 7.5,-59 7.5,-23 234.5,-23 234.5,-59"/>
<text text-anchor="middle" x="121" y="-37.3" font-family="Consolas,Monaco,'Andale Mono','Ubuntu Mono',monospace" font-size="14.00"> 17: Integer, Float, String </text>
</g>
<!-- 15.5&#45;&gt;17 -->
<g id="edge4" class="edge">
<title>15.5&#45;&gt;17</title>
<path fill="none" stroke="black" d="M121,-94.7C121,-86.98 121,-77.71 121,-69.11"/>
<polygon fill="black" stroke="black" points="124.5,-69.1 121,-59.1 117.5,-69.1 124.5,-69.1"/>
</g>
</g>
</svg>
